<svg width="164" height="59" viewBox="0 0 164 59" fill="none" xmlns="http://www.w3.org/2000/svg">
<path d="M39.6346 1.2331C37.2882 -0.0831444 34.0834 -0.369287 30.0775 0.489135C24.9544 1.43064 20.1058 3.50302 15.8849 6.55531C12.1572 9.31748 8.95844 12.7295 6.44226 16.6275C4.13622 20.0743 2.37937 23.8582 1.23451 27.8442C0.204399 31.4495 -0.196197 34.5971 0.0899432 37.1723C0.589006 41.0733 2.08717 44.7793 4.43928 47.9312C6.95731 51.3649 11.0777 54.0546 16.7433 56.0004C22.4089 57.9461 30.0775 58.5757 39.749 57.8317C47.8754 57.0305 54.8 55.2564 60.58 52.5667C61.7246 52.0517 62.7547 51.4794 63.7848 50.9071C70.0799 47.3017 74.6582 43.353 77.4623 38.8892C80.2665 34.4254 81.2394 30.5911 80.3237 27.1574C79.8659 24.9828 78.2635 22.9225 75.6883 20.8051C73.113 18.6877 68.8209 17.4287 63.0981 16.9136C61.0557 16.7992 59.0074 16.8566 56.9747 17.0853C52.1103 17.4859 46.273 18.6877 39.5773 20.6334C36.5442 21.6063 34.5413 23.037 33.6256 24.7538C33.1773 25.5286 32.9132 26.396 32.8537 27.2891C32.7941 28.1822 32.9408 29.077 33.2822 29.9044C33.8867 31.5718 35.0628 32.9709 36.6015 33.8531C37.3645 34.3454 38.225 34.6667 39.1239 34.7952C40.0228 34.9236 40.9389 34.856 41.8092 34.5971L48.5049 33.1664C51.3506 32.5568 54.2401 32.1741 57.1464 32.0218H58.5198C60.6616 32.0958 62.7572 32.6638 64.6432 33.6814C66.7034 34.9404 67.7336 37.1723 67.7336 40.5488C67.7336 43.9253 65.6733 45.4704 63.0981 47.3589L60.2367 49.2475C58.3369 50.3354 56.3454 51.2546 54.285 51.9944C51.2436 53.0518 48.149 53.9496 45.014 54.6841C43.1707 55.1445 41.2963 55.4697 39.4056 55.657C38.2039 55.7142 36.3153 55.8287 33.7401 55.8287C30.9628 55.8004 28.198 55.4548 25.4992 54.7986C22.6638 54.1749 20.0521 52.7899 17.9451 50.7926C15.7132 48.7896 14.2825 45.8138 13.7675 41.9223C13.5868 38.767 14.5183 35.6484 16.4 33.1091C18.3238 30.4873 20.7091 28.2378 23.439 26.4707C25.8961 24.8187 28.4577 23.3277 31.1076 22.0069C33.4539 20.8623 35.1135 20.1184 35.9147 19.6605C39.1195 18.4015 41.3514 16.5702 42.6676 14.1094C43.9466 11.9373 44.3748 9.36817 43.8694 6.89868C43.4116 4.43787 41.9809 2.60658 39.6346 1.2331Z" fill="#B12009"/>
<path d="M62.5258 40.7777C62.5304 39.9275 62.3658 39.0849 62.0416 38.2988C61.7174 37.5128 61.24 36.7992 60.6373 36.1995C60.1131 35.6664 59.4914 35.239 58.806 34.9405C57.9109 34.5262 56.9302 34.33 55.9446 34.3682C54.2159 34.4141 52.5733 35.1327 51.3663 36.3712C50.75 36.9938 50.2692 37.7372 49.9541 38.5547C49.6389 39.3721 49.4962 40.2459 49.535 41.1211C49.5435 41.9768 49.7312 42.8212 50.086 43.6C50.4409 44.3787 50.955 45.0743 51.5952 45.6421C52.8561 46.8055 54.5154 47.4405 56.2307 47.4162C57.565 47.3579 58.8552 46.9212 59.9506 46.1572L60.809 45.4704C61.406 44.8508 61.8671 44.1134 62.1628 43.3053C62.4584 42.4973 62.5821 41.6364 62.5258 40.7777Z" fill="#323E48"/>
<path d="M102.357 33.1092C102.946 33.2942 103.505 33.5641 104.016 33.9104C104.745 34.4095 105.332 35.0874 105.723 35.8791C106.114 36.6708 106.295 37.5497 106.248 38.4314C106.248 40.4916 105.504 41.9795 104.016 43.0096C102.528 44.0398 100.811 44.2687 98.3506 44.2687C95.8898 44.2687 95.4892 43.8681 95.432 43.1813V32.308C98.6368 32.308 100.926 32.5369 102.357 33.1092ZM121.929 28.0159C122.552 27.5767 123.285 27.3192 124.046 27.2719C124.313 27.259 124.576 27.34 124.79 27.5008C125.076 27.6725 125.191 28.0159 125.191 28.5309C125.191 31.6785 123.016 33.9676 118.667 35.5128L116.377 36.1995C117.037 34.6791 117.802 33.2066 118.667 31.7929C118.843 31.4662 119.054 31.1592 119.296 30.8773C119.978 29.7607 120.873 28.7886 121.929 28.0159ZM95.432 19.6034C95.432 19.1455 95.9471 18.9738 96.8627 18.9738C102.471 18.9738 105.275 20.8624 105.275 24.6394C105.283 25.5119 105.087 26.3741 104.703 27.1575C104.527 27.516 104.295 27.8444 104.016 28.1303C103.577 28.5757 103.051 28.9262 102.471 29.1604C101.555 29.5038 99.7241 29.6755 96.8627 29.6755H95.432V19.6034ZM130.227 28.1876C130.685 28.302 130.971 28.5309 130.971 28.8743C130.971 29.2177 130.341 32.4224 129.082 36.314C127.823 40.2055 127.251 42.838 127.251 44.4976C127.215 44.9095 127.263 45.3243 127.391 45.7176C127.519 46.1108 127.724 46.4743 127.995 46.7867C128.514 47.1961 129.166 47.3998 129.826 47.359C131.486 47.359 133.088 46.4433 134.748 44.612C134.746 45.0248 134.85 45.4312 135.05 45.7921C135.251 46.1529 135.541 46.456 135.892 46.6722C136.617 47.1083 137.451 47.3268 138.296 47.3018C139.037 47.3448 139.778 47.2176 140.463 46.93C141.147 46.6423 141.757 46.2018 142.245 45.6421C143.288 44.4608 143.841 42.9254 143.79 41.35V29.6183C143.79 28.7599 143.961 28.302 144.19 28.1876C144.923 27.902 145.695 27.7284 146.479 27.6725V25.8984H136.808V27.6725L138.925 28.0159C139.269 28.2066 139.44 28.6072 139.44 29.2177V43.9825C139.44 44.5548 139.326 44.8409 139.154 44.8409L138.983 44.3831C138.468 43.0097 137.781 42.3229 136.808 42.3229H136.407C136.558 42.0245 136.73 41.7376 136.922 41.4645L135.778 40.6061C135.206 41.2928 134.748 41.9223 134.29 42.3801C133.832 42.838 132.459 44.2114 131.944 44.2114H131.829C131.808 44.1882 131.793 44.161 131.783 44.1315C131.773 44.102 131.769 44.0708 131.772 44.0398C132.028 42.7454 132.353 41.4655 132.745 40.2055L136.636 25.7268L136.064 25.3262C133.52 25.9047 130.938 26.3063 128.338 26.528L128.052 26.2418C127.222 25.5933 126.185 25.2679 125.133 25.3262C122.886 25.3246 120.683 25.9595 118.781 27.1575C117.844 27.7219 116.963 28.3733 116.149 29.1032L115.061 30.1906C113.668 31.6833 112.545 33.4067 111.742 35.2839C110.826 33.2236 108.881 31.7929 105.905 30.8773C105.561 30.9917 105.561 30.7628 105.905 30.8773C108.194 30.1906 109.625 28.9315 110.311 27.1575C110.634 26.2982 110.789 25.3853 110.769 24.4677C110.769 21.6063 109.453 19.4889 106.878 18.1154C104.302 16.742 102.414 16.4558 99.3807 16.4558H85.646V18.1727C88.5074 18.3253 89.9381 19.2409 89.9381 20.9196V42.2085C89.9381 43.5247 89.652 44.3259 88.908 44.6693C88.164 45.0126 87.3628 45.1271 85.646 45.0699V46.8439H101.613C102.417 46.8436 103.22 46.7863 104.016 46.6722C105.75 46.4544 107.413 45.8479 108.881 44.8982C109.669 44.3863 110.349 43.7253 110.884 42.9524C111.23 44.1183 111.916 45.1546 112.853 45.9292C113.791 46.7038 114.938 47.1816 116.149 47.3018H117.121L118.667 47.1873C121.986 46.7295 124.847 44.9554 127.308 41.8079L126.335 40.6633C123.645 43.0669 121.356 44.2687 119.525 44.2687H118.667C118.176 44.2493 117.695 44.1212 117.26 43.8936C116.824 43.666 116.445 43.3445 116.149 42.9524C115.706 42.2331 115.505 41.3906 115.576 40.5488C115.578 39.7355 115.693 38.9265 115.92 38.1453L116.149 38.0308L118.667 37.573C125.763 35.9134 129.311 32.9947 129.311 28.8743C129.32 28.6439 129.301 28.4133 129.254 28.1876H130.227Z" fill="#323E48"/>
<path d="M158.726 27.2719C159.527 27.2719 159.871 27.7298 159.871 28.531C159.871 32.1363 156.952 34.7116 151.115 36.1995C151.863 34.3221 152.823 32.5365 153.976 30.8773C155.636 28.4737 157.238 27.2719 158.726 27.2719ZM159.814 25.3262H158.898C156.967 25.4997 155.104 26.1272 153.461 27.1575C152.074 27.9724 150.819 28.9953 149.741 30.1906C148.94 31.1634 148.139 32.1936 147.452 33.2237C146.067 35.4397 145.315 37.9928 145.278 40.6061C145.24 41.4984 145.383 42.3891 145.697 43.225C146.012 44.0608 146.492 44.8245 147.109 45.4705C148.253 46.7295 149.856 47.3018 151.802 47.359C155.75 47.359 159.127 45.5277 161.988 41.8079L161.015 40.7205C158.326 43.1241 156.094 44.3259 154.205 44.3259C152.317 44.3259 150.199 43.0669 150.256 40.5489C150.315 39.7406 150.429 38.9375 150.6 38.1453C159.527 36.581 163.991 33.4907 163.991 28.8743C164.038 28.2744 163.898 27.6748 163.591 27.1575C163.351 26.8118 163.062 26.5033 162.732 26.2418C161.902 25.5933 160.865 25.2679 159.814 25.3262Z" fill="#323E48"/>
<path d="M134.004 24.2961C135.647 24.2961 136.98 22.9637 136.98 21.3202C136.98 19.6767 135.647 18.3444 134.004 18.3444C132.36 18.3444 131.028 19.6767 131.028 21.3202C131.028 22.9637 132.36 24.2961 134.004 24.2961Z" fill="#323E48"/>
</svg>
